<svg xmlns="http://www.w3.org/2000/svg" viewBox='0 0 100 100'>
<path fill="#FFF" d="M2 8h1v1H2zM3 8h1v1H3zM4 8h1v1H4zM6 8h1v1H6zM8 8h1v1H8zM2 9h1v1H2zM3 9h1v1H3zM4 9h1v1H4zM5 9h1v1H5zM7 9h1v1H7zM9 9h1v1H9z"/>
<path fill="#414141" d="M2 10h1v1H2z"/>
<path fill="#FFF" d="M3 10h1v1H3z"/>
<path fill="#414141" d="M4 10h1v1H4z"/>
<path fill="#FFF" d="M5 10h1v1H5zM6 10h1v1H6zM7 10h1v1H7zM8 10h1v1H8zM9 10h1v1H9zM10 10h1v1h-1zM11 10h1v1h-1zM13 10h1v1h-1zM14 10h1v1h-1zM2 11h1v1H2zM3 11h1v1H3zM4 11h1v1H4zM5 11h1v1H5zM7 11h1v1H7zM9 11h1v1H9zM11 11h1v1h-1zM12 11h1v1h-1zM13 11h1v1h-1z"/>
</svg>